<svg width="100%" height="100%" viewBox="0 0 50 50" fill="none" xmlns="http://www.w3.org/2000/svg">
<path d="M28.0308 40.1395C28.0757 35.5502 26.9122 31.8182 25.4322 31.8037C23.9521 31.7893 22.7159 35.4979 22.6711 40.0871C22.6262 44.6764 23.7897 48.4085 25.2697 48.4229C26.7498 48.4374 27.986 44.7288 28.0308 40.1395Z" stroke="#1D4ED8" stroke-width="1.5" stroke-miterlimit="10"/>
<path d="M19.447 39.0972C21.9661 35.2608 23.0052 31.4922 21.768 30.6798C20.5307 29.8674 17.4856 32.3188 14.9666 36.1552C12.4475 39.9916 11.4084 43.7601 12.6456 44.5726C13.8829 45.385 16.9279 42.9336 19.447 39.0972Z" stroke="#1D4ED8" stroke-width="1.5" stroke-miterlimit="10"/>
<path d="M12.7792 33.593C16.9726 31.7278 19.8843 29.1194 19.2827 27.767C18.6812 26.4146 14.7942 26.8304 10.6008 28.6957C6.40744 30.5609 3.49571 33.1693 4.09726 34.5217C4.6988 35.8741 8.58584 35.4583 12.7792 33.593Z" stroke="#1D4ED8" stroke-width="1.5" stroke-miterlimit="10"/>
<path d="M18.7793 23.9745C19.0045 22.5116 15.5098 20.7597 10.9738 20.0615C6.43773 19.3633 2.57799 19.9833 2.35283 21.4462C2.12767 22.9091 5.62235 24.6609 10.1584 25.3591C14.6944 26.0573 18.5542 25.4373 18.7793 23.9745Z" stroke="#1D4ED8" stroke-width="1.5" stroke-miterlimit="10"/>
<path d="M20.408 20.4895C21.3882 19.3805 19.395 16.0176 15.9561 12.9783C12.5172 9.93901 8.93479 8.37425 7.95461 9.48331C6.97443 10.5924 8.96763 13.9553 12.4066 16.9946C15.8455 20.0339 19.4279 21.5986 20.408 20.4895Z" stroke="#1D4ED8" stroke-width="1.5" stroke-miterlimit="10"/>
<path d="M23.6514 18.4528C25.0756 18.0498 25.2171 14.1431 23.9675 9.72707C22.7179 5.31098 20.5503 2.05774 19.1261 2.46075C17.7019 2.86376 17.5604 6.7704 18.81 11.1865C20.0596 15.6025 22.2272 18.8558 23.6514 18.4528Z" stroke="#1D4ED8" stroke-width="1.5" stroke-miterlimit="10"/>
<path d="M32.4583 11.3239C33.7948 6.9333 33.7304 3.02461 32.3144 2.5936C30.8984 2.16258 28.6671 5.37244 27.3306 9.76303C25.9942 14.1536 26.0586 18.0623 27.4746 18.4933C28.8906 18.9243 31.1219 15.7145 32.4583 11.3239Z" stroke="#1D4ED8" stroke-width="1.5" stroke-miterlimit="10"/>
<path d="M38.7514 17.2565C42.2491 14.285 44.3077 10.9617 43.3493 9.83375C42.391 8.70575 38.7787 10.2002 35.2811 13.1716C31.7834 16.1431 29.7249 19.4664 30.6832 20.5944C31.6415 21.7224 35.2538 20.228 38.7514 17.2565Z" stroke="#1D4ED8" stroke-width="1.5" stroke-miterlimit="10"/>
<path d="M40.8322 25.6519C45.3812 25.0433 48.9097 23.3607 48.7134 21.8936C48.5172 20.4266 44.6704 19.7307 40.1214 20.3392C35.5725 20.9478 32.0439 22.6304 32.2402 24.0975C32.4365 25.5645 36.2832 26.2605 40.8322 25.6519Z" stroke="#1D4ED8" stroke-width="1.5" stroke-miterlimit="10"/>
<path d="M46.7004 34.941C47.3285 33.6008 44.4688 30.9355 40.313 28.9879C36.1573 27.0403 32.2792 26.548 31.6511 27.8882C31.023 29.2285 33.8827 31.8938 38.0385 33.8414C42.1942 35.7889 46.0723 36.2813 46.7004 34.941Z" stroke="#1D4ED8" stroke-width="1.5" stroke-miterlimit="10"/>
<path d="M37.9589 44.8299C39.2119 44.0421 38.2473 40.2537 35.8044 36.3684C33.3615 32.4831 30.3653 29.9722 29.1123 30.76C27.8593 31.5478 28.8239 35.3362 31.2668 39.2215C33.7097 43.1068 36.7059 45.6178 37.9589 44.8299Z" stroke="#1D4ED8" stroke-width="1.5" stroke-miterlimit="10"/>
</svg>
